<svg width="512" height="512" viewBox="0 0 512 512" fill="none" xmlns="http://www.w3.org/2000/svg">
  <defs>
    <linearGradient id="lughaGradient" x1="256" y1="40" x2="256" y2="472">
      <stop offset="0%" stop-color="#FFBF00"/>
      <stop offset="100%" stop-color="#2D6A4F"/>
    </linearGradient>
  </defs>

  <!-- Graduation Cap -->
  <path
    d="M40 140L256 50L472 140L256 230L40 140Z"
    stroke="url(#lughaGradient)"
    stroke-width="18"
    stroke-linecap="round"
    stroke-linejoin="round"
  />

  <!-- Tassel -->
  <path
    d="M80 140V220"
    stroke="url(#lughaGradient)"
    stroke-width="18"
    stroke-linecap="round"
  />

  <path
    d="M80 220L65 260H95L80 220Z"
    stroke="url(#lughaGradient)"
    stroke-width="12"
    stroke-linejoin="round"
  />

  <!-- Cap Base -->
  <ellipse
    cx="256"
    cy="180"
    rx="110"
    ry="45"
    stroke="url(#lughaGradient)"
    stroke-width="18"
  />

  <path
    d="M146 180V250"
    stroke="url(#lughaGradient)"
    stroke-width="18"
  />

  <path
    d="M366 180V250"
    stroke="url(#lughaGradient)"
    stroke-width="18"
  />

  <ellipse
    cx="256"
    cy="250"
    rx="110"
    ry="45"
    stroke="url(#lughaGradient)"
    stroke-width="18"
  />

  <!-- Open Book -->
  <path
    d="M40 360C120 360 190 380 256 430C322 380 392 360 472 360V430C392 430 322 450 256 500C190 450 120 430 40 430V360Z"
    stroke="url(#lughaGradient)"
    stroke-width="18"
    stroke-linejoin="round"
  />

  <path
    d="M256 430V500"
    stroke="url(#lughaGradient)"
    stroke-width="18"
  />
</svg>